{
  "accessors": [
    {
      "bufferView": 1,
      "byteOffset": 0,
      "componentType": 5123,
      "count": 36,
      "type": "SCALAR",
      "min": [
        0
      ],
      "max": [
        23
      ],
      "normalized": false
    },
    {
      "bufferView": 0,
      "byteOffset": 0,
      "componentType": 5126,
      "count": 24,
      "min": [
        -1,
        0,
        -1
      ],
      "max": [
        1,
        2,
        1
      ],
      "type": "VEC3",
      "normalized": false
    },
    {
      "bufferView": 0,
      "byteOffset": 288,
      "componentType": 5126,
      "count": 24,
      "type": "VEC3",
      "min": [
        -1,
        -1,
        -1
      ],
      "max": [
        1,
        1,
        1
      ],
      "normalized": false
    }
  ],
  "asset": {
    "generator": "OBJ2GLTF",
    "version": "2.0"
  },
  "buffers": [
    {
      "byteLength": 648,
      "uri": "0.bin"
    }
  ],
  "bufferViews": [
    {
      "buffer": 0,
      "byteLength": 576,
      "byteOffset": 0,
      "target": 34962,
      "byteStride": 12
    },
    {
      "buffer": 0,
      "byteLength": 72,
      "byteOffset": 576,
      "target": 34963
    }
  ],
  "materials": [
    {
      "pbrMetallicRoughness": {
        "baseColorFactor": [
          0.8,
          0.431283,
          0.253046,
          1
        ],
        "metallicFactor": 0,
        "roughnessFactor": 1
      },
      "emissiveFactor": [
        0,
        0,
        0
      ],
      "alphaMode": "OPAQUE",
      "doubleSided": false
    }
  ],
  "meshes": [
    {
      "primitives": [
        {
          "attributes": {
            "POSITION": 1,
            "NORMAL": 2
          },
          "indices": 0,
          "material": 0,
          "mode": 4
        }
      ]
    }
  ],
  "nodes": [
    {
      "matrix": [
        1,
        0,
        0,
        0,
        0,
        1,
        0,
        0,
        0,
        0,
        1,
        0,
        0,
        0,
        0,
        1
      ],
      "mesh": 0
    }
  ],
  "scene": 0,
  "scenes": [
    {
      "nodes": [
        0
      ]
    }
  ]
}
