{
  "accessors": [
    {
      "bufferView": 1,
      "byteOffset": 0,
      "componentType": 5123,
      "count": 72,
      "type": "SCALAR",
      "min": [
        0
      ],
      "max": [
        45
      ],
      "normalized": false
    },
    {
      "bufferView": 0,
      "byteOffset": 0,
      "componentType": 5126,
      "count": 46,
      "min": [
        -0.3696739971637726,
        0,
        0.9400410056114197
      ],
      "max": [
        0.3696739971637726,
        1.3130379915237427,
        1.0869100093841553
      ],
      "type": "VEC3",
      "normalized": false
    },
    {
      "bufferView": 0,
      "byteOffset": 552,
      "componentType": 5126,
      "count": 46,
      "type": "VEC3",
      "min": [
        -1,
        -1,
        -1
      ],
      "max": [
        1,
        1,
        1
      ],
      "normalized": false
    }
  ],
  "asset": {
    "generator": "OBJ2GLTF",
    "version": "2.0"
  },
  "buffers": [
    {
      "byteLength": 1248,
      "uri": "0.bin"
    }
  ],
  "bufferViews": [
    {
      "buffer": 0,
      "byteLength": 1104,
      "byteOffset": 0,
      "target": 34962,
      "byteStride": 12
    },
    {
      "buffer": 0,
      "byteLength": 144,
      "byteOffset": 1104,
      "target": 34963
    }
  ],
  "materials": [
    {
      "pbrMetallicRoughness": {
        "baseColorFactor":  [
          0.45435,
          0.245963,
          0.171126,
          1
        ],
        "metallicFactor": 0,
        "roughnessFactor": 1
      }
    }
  ],
  "meshes": [
    {
      "primitives": [
        {
          "attributes": {
            "POSITION": 1,
            "NORMAL": 2
          },
          "indices": 0,
          "material": 0,
          "mode": 4
        }
      ]
    }
  ],
  "nodes": [
    {
      "matrix": [
        1,
        0,
        0,
        0,
        0,
        1,
        0,
        0,
        0,
        0,
        1,
        0,
        0,
        0,
        0,
        1
      ],
      "mesh": 0
    }
  ],
  "scene": 0,
  "scenes": [
    {
      "nodes": [
        0
      ]
    }
  ]
}
